# xmcd
#
# Track frame offsets: 
#        150
#        18477
#        45888
#        61526
#
# Disc length: 1076 seconds
#
# Revision: 0
# Processed by: cddbd v1.5.2PL0 Copyright (c) Steve Scherf et al.
# Submitted via: ExactAudioCopy v0.99pb4
#
DISCID=20043204
DTITLE=Marcus Foster - Tumble Down
DYEAR=2011
DGENRE=Alt. Blues
TTITLE0=Shadows of the City
TTITLE1=Tumble Down
TTITLE2=Demons
TTITLE3=You Send Me
EXTD=
EXTT0=
EXTT1=
EXTT2=
EXTT3=
PLAYORDER=
